<mxfile host="app.diagrams.net" modified="2022-06-30T18:27:07.985Z" agent="5.0 (Windows NT 10.0; Win64; x64) AppleWebKit/537.36 (KHTML, like Gecko) Chrome/102.0.0.0 Safari/537.36" etag="23fd0O5bEIm7Vm5Mn5ae" version="20.0.4" type="github">
  <diagram id="VHvV-iNKze0_-u9KuhWa" name="Page-1">
    <mxGraphModel dx="1422" dy="762" grid="1" gridSize="10" guides="1" tooltips="1" connect="1" arrows="1" fold="1" page="1" pageScale="1" pageWidth="827" pageHeight="1169" math="0" shadow="0">
      <root>
        <mxCell id="0" />
        <mxCell id="1" parent="0" />
        <mxCell id="OF6mC3Aj_WqyfqdPgHd6-4" style="edgeStyle=orthogonalEdgeStyle;rounded=0;orthogonalLoop=1;jettySize=auto;html=1;" parent="1" source="OF6mC3Aj_WqyfqdPgHd6-1" target="OF6mC3Aj_WqyfqdPgHd6-2" edge="1">
          <mxGeometry relative="1" as="geometry" />
        </mxCell>
        <mxCell id="OF6mC3Aj_WqyfqdPgHd6-1" value="Maven Build" style="rounded=1;whiteSpace=wrap;html=1;" parent="1" vertex="1">
          <mxGeometry x="80" y="190" width="120" height="60" as="geometry" />
        </mxCell>
        <mxCell id="OF6mC3Aj_WqyfqdPgHd6-6" style="edgeStyle=orthogonalEdgeStyle;rounded=0;orthogonalLoop=1;jettySize=auto;html=1;" parent="1" source="OF6mC3Aj_WqyfqdPgHd6-2" target="OF6mC3Aj_WqyfqdPgHd6-3" edge="1">
          <mxGeometry relative="1" as="geometry" />
        </mxCell>
        <mxCell id="OF6mC3Aj_WqyfqdPgHd6-2" value="Docker Build &amp;amp; Push" style="rounded=1;whiteSpace=wrap;html=1;" parent="1" vertex="1">
          <mxGeometry x="294" y="190" width="120" height="60" as="geometry" />
        </mxCell>
        <mxCell id="PjstXgl7E4h7pvbELBnQ-3" style="edgeStyle=orthogonalEdgeStyle;rounded=0;orthogonalLoop=1;jettySize=auto;html=1;entryX=0;entryY=0.5;entryDx=0;entryDy=0;" edge="1" parent="1" source="OF6mC3Aj_WqyfqdPgHd6-3" target="PjstXgl7E4h7pvbELBnQ-2">
          <mxGeometry relative="1" as="geometry" />
        </mxCell>
        <mxCell id="OF6mC3Aj_WqyfqdPgHd6-3" value="Deployment Regions" style="rounded=1;whiteSpace=wrap;html=1;" parent="1" vertex="1">
          <mxGeometry x="510" y="190" width="120" height="60" as="geometry" />
        </mxCell>
        <mxCell id="PjstXgl7E4h7pvbELBnQ-1" value="" style="shape=image;verticalLabelPosition=bottom;labelBackgroundColor=default;verticalAlign=top;aspect=fixed;imageAspect=0;image=data:image/png,iVBORw0KGgoAAAANSUhEUgAABWsAAACVCAYAAAAucKgnAAAAAXNSR0IArs4c6QAAAARnQU1BAACxjwv8YQUAAAAJcEhZcwAADsMAAA7DAcdvqGQAAEDqSURBVHhe7d0LdFTlvf//Ty4w3BIIEAwkKkqhiMhFBAShhUoBq2LxHC6uYtqC0FOIroJ2leBPAW2B/kT0p4Cn3Noi53+gnNO0UI5AoaJwRKBcC0hFLkICgQQCCYRMIMl/P3v2JJMwSSYhgUnyfq01ZPaz9wx79iTf/ezvfi4h2Tm5BQIAAAAAAAAA3FGhzk8AAAAAAAAAwB1EshYAAAAAAAAAggDJWgAAAAAAAAAIAiRrAQAAAAAAACAIkKwFAAAAAAAAgCAQkp2TW+A8BwAAAAAAqJT8/HyFhIQ4S6gJ8vMLFBoawvcGBBGStQAAAAAAoNLSLl7S1ewc3biRp/wCUgw1jUnW1gsPV6OGLrWMakriFrjDSNYCAAAAAICKKyjQyZRzdnKvVYumatywgcLDw5yVqClMkt0k289duGR/l7Ex0QoPY9RM4E4hWQsAAAAAACrsZHKqGrpcahvXyilBTXf89DnlXr+ue9rcJRrYAncGt0oAAAAAAECFpGdctlthkqitXe6/+y57KIsLly47JQBuN5K1AAAAAACgQq5cvaa7WjRzllCbmO81OzvHWQJwu5GsBQAAAAAAATMtaq/fyFPjRg2cEtQmZuzhvPx8FTBZHHBHkKwFAAAAAAAVYhJ54WFMJlYbhYeH2snar74+oxt5eU5p1TCTmQEoG8laAAAAAAAQMFpc1n75+XzHwJ1CshYAAAAAAAAAggDJWgAAAAAAABTq0LaN8wzA7UayFgAAAAAAAIUaNnA5zwDcbiRrAQAAAAAAACAIkKwFAAAAAAAAgCBAshYAAAAAANQN7hPauGy5tqQ4y1UhNUnjO3XTnD3O8i3YO7eb2v8kSWnOMoC6h2QtAAAAAAC4I9KSEtS+Uze1f26Vkp2yQu6dmvmIta5TglanOmVlOfWRpoxJ1Nqyts09ri0LF2vjl1lOAQAEF5K1AAAAAADgztq/XGsOOs8dmZtWaUVUrOKc5XKlf6G1e7KU4yz6FfG4Zv19q2YNjHAKACC4kKwFAAAAAAB30CiNGZ2ihesPOMtGitas2KzBnTsWa3HrPrJKU8YMUmfTGveRQRq/7IjcZsWeeWo/Zrn1ZJumfccZSsAZnmDmouWKf8wqm2u9v++QBakfafwj3TRypTMmQsZHmtSpt6ZsyJJ7/3wNfWS0lh71rCrOrcPLEtTXtPp9LF4z15zw7INXXpb2etebffxgp9LyPKs8wxws15akmXrG+/oNZYzJcGqb5kxyPu9jwzXJ+15Hlmigta++Qy/YrZS/u0S5BU5BVajK9wIQEJK1AAAAAADgDnLp24NGSSvXabs363l8m1YfHaUxz8Y6BR6ZFyM17I2V2v33HVr/Skdtmfuylh6xVnSdpN0LrPdQL03/41btnvs9RZsXWFbvj9CsT/fp6CtdnBJHzBOaOrmL9s5dbv2/bu1dOl8b+09V4pCyW91mbpihkXNTNOStddr9l9n6dtpWbXfWGYeXxmvkH2M16887dPAviYr74wRNWu2TkN29WKuzR2nJXzfpzxMjtXpyolacctb5ytisKc8maEubGVr/v1v12W9GK3fpBD1vPnDHJzSuq1sr/uZNcKdry/pt6vSjx1U/xCm6RWGhobp+w8kyA7htSNYCAAAAAIA7qmnv4ZoYtUorNnnGkj28Ybkyxw1Xn8b2YqHovk9owP0t5WrkUrsBj2uAUpSZba0Icymyqct6Ul+uZhGKjDDPPUaM/p7iwpyFEtqNnqbJMav0ztx5Wrishab/Yrid5HV1TdD6v6/UuPae7Yqk65M1H8k9+mVNHRiryKhYDfhRvPo4a6UD2rDohAaMG68BsS65Yh7XsCHS3q0HiiYNe2iKEn/QUdFRLdVpdLzGWK/5ZHe6s7JI2tYkrc0epamv9FNcVISiO4/S5AmxOrZ6mw7L+n+f6SL3hp3Wc0vGLm3Z2kUj+t9nv7Yq1KsXpqvXrjlLAG4XkrUAAAAAAODOCuuoYeO6aOOaTUpz79TqpdKIgR2dlT5Sd2rFGy/rmZGj1fepmdriFJfF1bgocXsT6/8d8dPHtfc/VmnLDxI05n6nvFRn9NUOqc8D96nwXcNM22BH6jEdzpa2vDrIM3Ga9Ri5zCq/4TOSbn2f7cMaOE9ulvzlNql3R33DZ/ejo++TUjLtYRfihjynwSmbtOe4lLnzU23s+qQG3OPZriq0atFMGZevKD+fsRCA24lkLQAAAAAAuOPs5OPWJK1YZD3ax2tYyVyte6dmPjVBn9w7XkuW/l6f/WW6BjirKi3viFZ/sFkDnnxCcf+xXKtTnfJStVDcQ9L24z7DGuSZUWwdMe3Uzvox+K2tOnp4X9HjN54Wu7Zcn+3dnsSrSfiWFNehn7TjiL4q3FhKSzshdY5VpFmI6qehQ6z9335An2/6SIPHfC/wydjKYEZRyM/PV7OIxopo3FBfp6TqBsMhALcNyVoAAAAAAHDnRfXTM08e0MIPSkk8Zl1QshnywOWS60aWDm/eXGysWDWKtF6zS4cPpivTJ8FZlmMrZ+kdJWjynGlKfHKXZr69WZlWeekTjMXqYTPUwO/na85nKcpMPaIVc+epaJ6vb2rI2Fht/GCeVpv9yMhS8p7lWrvfWW3sWK6lH1uvzUjRlrlva0WjJzSif0tnZZHo/sP1dKNVmjN3m5Kt90k7uErvLErXgDGP2wlhKUKDnx2lw3+ZqyXrHtfQvmWPtRso0442O8dzAO+Lu0sNG7h0/PRZJaemKT3jsjIuZ1X6kXX1mnLcuTx4BO0j+1qO/fOa8zdwJ4Rk51TpPIEAAAAAAKAWK8gv0NGvU/RQh7YKDb212azSkhLU99X79YfDU9TdWnZ/Nls9XpIW/2+i+pju/3vmqf2Y45r1t/kaEePW4WUv64WF25Tm6qWp0/rp85/PU7sV+zT1YWvbvBStnfpDJa5Ll3vgbH32Wo6mfWdm0XojNUnjvWXNVmnkU/MU984mzTOTih1ZoqHPLlaf33yqqZGL9cy4bRrxn37GrbX+n42/SlTiygNym0nKXntAn0wqsR/W+tlrDigt26Xoh7+vGXMTNThG2ju3m0YenaJZ3TZpzvvm9f00+b23Na6zZ6wDz/rp+sxpies+mqQ5Mxdo9R7rM0V10ZhXZmrqcJ8hGExr48cmaMXAt7X7rcc9LW5v0Y28PKWmXVJcTAunRLrmztWZcxeUe/2GCux0biVYLzOvrBdeygDCQBAosH5JQ6ywZn7X69erp6aRjRXZuJGz9vYgWQsAAAAAAAJWlcnauqZkMvaW2cnaF6X3PtX0vj6D294Ck6w9/NVpdflmW6cEqHvMUCBpGZm6eClLjRs1UHTzZs6a6keyFgAAAAAABMwka8+mXVB086Z2CzQE7sB7ffWjY4n66/97WkXtVisnN+uMdv7mFb20Y7D+v5U/UscqarBqJhQ7d+GS2reNtcevBeqyS5lXlXL+giIaNVR0i9uTsCVZCwAAAAAAAmaSeSdOn1XnDvc6JQhUlbWsdYZz2NN1lGabIRZinXIAVS49I0sXLmXqnjatnJLqRbIWAAAAAAAEjGQtgLrmnydS1DIqUo0aNnBKqk+o8xMAAAAAAAAAUIKrXrhy3NedpepFshYAAAAAAAAAShMSIvf1XGehepGsBQAAAAAAAIBSuOrXk6tefWepepGsBQAAAAAAAIAgQLIWAAAAAAAAAIIAyVoAAAAAAAAACAIkawEAAAAAAAAgCJCsBQAAAAAAAIAgQLIWAAAAAAAAAIIAyVoAAAAAAAAACAIkawEAAAAAAAAgCJCsBQAAAAAAAIAgEJKdk1vgPA9IQUGBruXkKi8/zykBgIoIUb3wMDVw1XeWUVKOO1fXb5gYW6HwDAC2sNBQO8aGWj9R3PUbN+TOvW7XZwGgokJCQlS/Xj3rEe6U1F35+QU6cfqsOne41ykBgNrtbFqGHfuaN4twSqpPwMlas0PpGZd1OeuqGjV02ckWAKgoc32ce/2GrluPZpFNbkugqykuZV5RhvUwiRZX/XrWBYGzAgAq4MaNfF29lqPIJg3VollThVNnU3aOWxcvZVnnn+tq1MCl0FACLICKM9fE19y5Cg8LU/OmEWrcqIGzpu4hWQugrgm6ZK1Jqpw5f0GRjRuqVctm9skJAG5Fjvu6UtMzlJeXrzZ3tXBK665z6RetY1Gg1tFR9g0xALgV+QUFSrtwWekZmXaMrcu9GUxDA9PgILZVC0U1beKUAkDlXbLiyplzF9UssrEVV+pmwwOStQDqmtuZrA2of1xq+kW1jIq0K/skagFUhQauemob20qu+uE6l57hlNZNJomgghC1uyeGRC2AKhEaEqK7Wjaz6m7NrYrlRTt5WxdlX3PbMfYb97QmUQugyjSLaKxv3Nvavhl0JfuaUwoAQNUoN1lruuXWDw+3k7UAUNXiYlrqWo7bHgu7LjLjJ5o4G9ea1sUAql5UZBO7Z9TFS5lOSd1y8XKmYut4y2IA1cOMW2viS12NrwCA6lNusvbK1WtqQaIWQDVq0SzCijXZzlLdYmKsGfOMXgsAqou54Z5lxZq6xjM+ep6dsAaA6hDZpJH1b4g9OSwAAFWl3GRtTm6uGjesuwOnA6h+jawYY2bnrovM52boAwDVybQqzc/PV571qEtyTXxtQItaANXLTFpYV+uxAIDqUW6y1gyey4y5AKpTmBVj6up4iuZzh4UGNHw4AFRaaEioCqw6XV1i4mso8RVANTPXygV1tB4LAKge1GABAAAAAAAAIAiQrAUAAAAAAACAIECyFgAAAAAAAACCAMlaAAAAAAAAAAgCJGsBAAAAAAAAIAiQrAUAAAAAAACAIECyFgAAAAAAAACCAMlaAAAAAAAAAAgCJGsB3HHh4WG6kZenrKvXdONGnlNau+Vev6HMK9m6bv2sXy/cKQWA6pGfn69r7lxnqfbLznEr+5pbObnXnRIAqB7XcnKthyfm1BVuK7ZmWfXYgoICpwQAUJVI1gK44+qFh9tJ2rPnL+j46bNKSU2vtRXeK9nXdPpsmk4mpyo17aJd2W3gqu+sBYDqkZefb8fYY1+fUXrGZae0djFJA/PZvrI+Y7IVZzOvXLUTKABQna5ey7EbHCSnpunoyRSlXbhkx9za6HLWVX2dcs5+nLuQoXyStQBQLcJe/T+vzXCe+3XhUqZiWkY5S7cuMydLe5IPa8ORT3Us/Wu7rFWTFvZPAHWXqeu56tezK32m9ZdpdWo0auiyf9YGaRcvWRX4y3Zi2rSmjWzSyH5ENG7obHHrvDF29b511vMrcoXXV9MGEc5aAHVVXl6+QkJD7BtEphWYuXHUsIFL4WFhzhY1m/lMyefSdTU7x07ahoSEVEuMPX3prD4/uVdrDv7VWgqxy4ixQN1m6rCmvlovPEy51/Psm0Sm1amp19arJb2nTFw1jQwuXs6yzyeNrc/bNKKxmljxtSpjbFU5lPqlPvnqc2234rX7xnXd3ay1swYAKu+KXc+UXYeubiHZObll3g778kSyuna8z1mqvO0n92jyn960K7n+DO34bc0Y+jMCKQC7dcK59Et2S4WophGKbt7UWVNznb+QoUuZV+1WtDEtm9kV3KpUVoyNbBChlwe8oBceHeWUAKirzBAs5y9c0oVLWQoLC9XdrVvV+KFYcty5do8Fb3fc1tFRammdN0JDPMnUqvD2liWaZz38MTF2vBVfp1hxFkDdZsKQaeF/Ni3DjklxMS3VqGEDZ23NZVoNm15vUU2bqFXzZlZ9tp6zJniYBgvztizV4s9XOiXF9Wn7sN75/mvVnG9I19rJwzVD07T+nScU7ZQCqB1MbM/PL1DzZtV/o77ah0EwQXPcyl/oX383sdRErbH+yCca/O/xWvL5KqekAvbMU/tO3axHb838zH93t8MfPOnZ5idJSnPKglFaUoK1nwlaneoUVJJ7/xI989hoLdzvHA/nGM3Z41n0KzVJ461txielOwXAnWHu0H/j3tZqYQXBjMtZdvK2JjOthE2i1iRoO7RtU6WJWhNjZ6x/t8wYa7aZvv6dcuNwqQpjrPfRX0NHvqw5SQeUVtVDDAcSq6pA3Yy16Vr9kzt9HjygOeZ3aO4BZxm3m0nMmuTB3a1b2q2jTHfdmu5cuicpYlq1tb+3jVq1aFZliVpzI+zRd4eXmqg1TIw1yVxTjzWtuSrsdsZY4zbF2bripvNAnWQSVP3VY/JHQX2ddTuY0GMaGZj6nmlZaxofeG8k1VRpFy/bidrYu1rontbRQZmoNbHaxODSErWGd5tK5RuMvCwdTpqpZx6Zp71O0c2ydP7rXFVsiPhgqJ9VsTt5nuEch1qiWpO1pvL6r7+bZCdiA+FNKJgKb+W4tWLTLuvfEvIOaM3SdLkaOct1gPtiipIz3DcfCyDInEu7qH8eO6VjX6foSomkrEkomC6sF2r4+IoXL2WqUQOX2sa2srvmeqWkpunIsa919MRpe5vK+Nmf3iyzYurLVFJH/G6iHWsrY/AvFmn5kvma9coo9YnerxWvxqvvM1aF1TNiRZ1ErEUwM0OufJ2SqiNffa3jJWJs86YRatOqud2DoWTsrUnMDT0ztINxb5tWxYbOMeeOL634as4xZ89V/OaIiZkVucllErWm3luphK2FGFs5mXuWa8qYQXrnDl2Y1+bzQPKm2Zr01MsB3NisTIKq5rNjbLIVY6263Okz551SD9OTysSk6zdu2D0ZaqpcK76aOGuGRWwZFemUStnWuePEqTP2+eVk8tnCOHwneGJvYLHam28ItO7s4dbhlYka+a3+eubVJB0uMybfp3F/3KGDC2hVWzEp2vjGyxo6uRYlrIFbVK3JWpN0rUyF1bReMBXkihrQv5+0MkkbM5wCh3vHOq3I7qdv93cK6oDIgdO1+3CSJnetPeN9onqdX/OmRv94kvNYrENOucc+LStc96Y2VqJxZklmZvLtuw9q+56D+uKrk/rHkWPatG2Xjp5MdrbwaB3d3O62a8YhrIlMSwSz/61bNXdKPMmFzdv+rl37v7AruYe+PKFPd+zTnoMVi5fmRpgZ/7siTEV2+vp3naWKufuhXurTt59GjE3Q9AWb9Nlv49Xu+HI9P32zKpdqrvmItaiws+v1uhVLl+12li3F46/1mLZexS/7K87cDNrwyQ7tteKKSSQccGKsiTlepvVX40YNlHm15mYDveObt2rh+SxeJr5u3blfh634as4xO/Yd1pbte+xJxwJhLujN0DIV5XndLyt1U4wYWznur3dq7Z70O5Ysrc3ngbR9q7TxeCBHNkgSVE58fX2Nn+xyWesqwTQ22PjpTu09ZMVYK67u/scRbdq6S5cyi/72Gzaor5joqIDjTjAyMdYknu9q2cwpkV1XN599/xdf2eeXfYeOWuebz+3E9Z1gGi5UlBkuIfA8RZaO7c7Sw68s17wfOkWoYhe0Z+VmHePmJFCo2pK1JolQkS4GnWLaO888TAW5ohXddkMf1wBt1vrPfF+XpY2rrf34gVUBLvnH7z6hjXNf1jPf6W03le/8nQQt3OG0vDiyRAOtsmf+44Rn2ZaiFc91U/vnVslOJ9ldIWZr5GOmy1pv9R0zW6uPFlVoCrvZ7t+phZMGqbP1fj2em62NKc4GZck6oqXOa4rtl8Vf992bygJo/u8+uEpTnutvb2fvV9H1G+qcVO3T01r52wX247We+/Tmwn2F6zZOWywleNatTIjRMmu5eDK34vYdPqpz6RedpSKH/nlc59OL7riYrlZm2IDsnJqZrL3mdqtxwwZq4iQRTLdjk0TI8pMcOZWSaietA+FNCAQiokETxTWLcZakP+xbF3CPh7JE9p6i2WNdcq/bpM99wm7mkSTNHOOJX+0fGaSRU1dpb4lw7j76kea8NFw9zDamy++vtvlPRhxfpZEmDk5KUrLTHdh+fyd2df5OvGYmnSi6SPfGvtWbnW3K6qpmCcpY69axDfM06dmiYzj+g50+3aG9Qwls0zHvOchss+xI8WRF9hGtmBrvOcaPWcdpw3FnRWmKuuEdO7hc4+1zo3Vum7RE230aJe6da21T4rjeVJZ1wP6/+z5iyq3v9yXr+3NWeeQoeZ33/NlfI63PUi3dvYPQoaS18nd52GH4a4UxeOWsoWrllFfGpcwrdpwxLbpKMhfWJ04X3XFr0TRC167dqTTXrTGfz9uaq0WzohZf5saXSVaXZI7L3/cfcZbK9vr6dwNuUVsyxpoEQOV7iRUpM8aWEgMLY9TR0mObX6lWXdU3Jr80T1tOOeucOvHARb7Hzqpf/9za9rtLdNj62y38fwvrvCZ2LLdboCVvKONvvcy6dFFM2rtjiROTrPd4Y3Ph+cDEnr6vbrOfLx1j3qO0mO/EzV8naeMbnrjojdtlnlMsdqwqjIfLtfb35rP6xH1/54Gyjqfhfc3HJ7Ta2R/zPS096PM/56Voi3WdMrTw2MzX9lIujSp3/Ms613iO/chl5vk2TfuOtd7pou39v5auc84TdnnxbtyZGxLt95y0zrvD5vfF2va787S9mpIxhxZO0uj3pX49nQIfZa2rjOvXb+jv/zii3OvFW5OaiRv3/KN4hG9pxSbTAvdOtjy9Fab3hRmWzCv57Hm7rl6SGcPRJK5v99A6JtYeTj3qLJXNN99QkXq09S3q6bfma+rwLoord05OP0MaeONcYc4hXlNWHlCmbyx0ZJZR//IrfaeWFta3TJxYpcIrifLikL/6pF1fTLHrkEXnkESt8JfjqMx5xtm+/WPDNckbb+zhweK11Gyzdab6WusLhworJ99iJH88z+eYWXGvZnfIBApVY7I28NZeZqDvv/7bh8UCqKkgHwow8Ba6d5CGDZE2rvifoovCjG1av8GlMU/00033uzOOaMu5rnrhvT9q9/rlmvjALr3z49laa/JEHftpRKx0+NN9RYHWCjCf7Je6P9NPcVYFZ+/CeD3zqy/U55dJ+mz9Yk28d6emPTejRMveE1r41keK/NdZWvzWC2p3dJUmveIke0t1Qkt/MU+Z37NesyBRw5qZ/ZqiFcWC6y1KSVLCyNna6B6k6QsWaf6YCC2ZMkfbndWoa2I0eFg357n0YO+i5zq7z6qmP62nejjLPZ7W2Nb7tMNpFVasRVhhgrds5gL7VMo5Z+lmp84UXxfRuIHdsvbipcs17nHVqrh7E7WG6Spmuo6VxgwHYbqcleezk3sCuqFlkgj//aOFevf7rzslHpXpveBPp97ft/79mw459Xb3/vka+exMrWkwWrOXLNLymdb6TVYl6znPBb3NxJ/nrIpfckdNfMt0+52mYa6s4olGI9uqRL40W3vvj9eHbw23K8ie95+jQ31na/3f1unDCe20/dXRStxQ/FgsXbRTfd7ZqqOHp6i7U3azYI21VsX0szQ9PG6+1v/vOv1hQkdtf3+CZqwv8X1veFvzkrtpsnUBMX1IhHVR/0PN8Y7bbl3kr548WjM35WrI6/O1/K3nFPnhy5rp05qzVMeXa8q7mRr2y/e1+PXvKXrHfMW/WN55y1eKVkywKvsHH9Dk363TZ3+ZrWHZF4rOpcaGmZry2f3W9z9fkwfmau+yl61K/k2/AbXP7sV604qnY0vMbZKWnKq2sUXJPl+VibHHT51xnvl37Ouib9OMEZ6Xn68LGZf8xrDgfnhu8ZhWX95J0kzMNTe+SmNauJV1/vFavW+d86xspu5q6rDLRv9fp8Sjor0eSuM/xpYXAysY21I/0vinJmihiSdWnFq+IEEPW3Fg/LOJnjptxyc0rqt1Qbxpf1ESwL1f261D1OlHj6tTYfJil2bO9NR5Z//0m8q0LqBHjhmtSR9G6HkTp4a3LPG3HmBd+vgSzV4ToR9YMWneT+/T4ZUva8pqT8uHds8s0rwfdrSfe4aRGK529lIpfr9E2/vO0+7D+zT14fKPp3vHPD3/81U6dv94zVvyvmb1P6EFv/Ykh0tV3vH0seHt+UrukaD55ntqtE1zfjRP2+3D49b2Oc9q/Eq3hr3lHJt2F5ReZgPNih7/ss41EeozcZGmWtdV1i+Axplz9cReKrolYu3rGmnyn3fo6G+G39SaNnJQgqb3t67J3l3lOfcfXKXZ1u/L06+MV59qGpbuwYmeG13W5dtNylpXmRibnHreTtj6Y2KMaXXrZSZyNDftTbzyH8eC+2F6hzWxzhNex8o5vxw/FUirpKoTaOODEd2etGN1n7ZFtUJzY60yvSAqxolzr/6PGoyYYcWoRZo93PrbeCNeI5eWuHlY0fqXqSf/aILmbG2gYa9adb0lb1txwu1p/FCBOKSViZpptvtlokZEHdCKyQl6ZswMHes/w85fdMr8SDNf/1OJ/ajceWZNs/H6cP0mrf/l40pbOkHPm2MQ1UsTl0zRYLNd53gr1i7SxF7mBkH55wg7Rk9arj0+MTrRitlAbVBtydpAuxWYRO1IK3iall4l74qZZETFRGjwiFFy7V9XeNcoecN/amPseA3z1zUp5gnNeiteT3eOVeQ9XTQx3syUvlmH7Ma0HTXkR1blb+tmbXHq/Gnbred6XM8PsU71GX/Tkg9OaPDMBdaF5n2Ktl4/ZmK8+mR/pPU7fYN+ugZMnKoxA3upz5MJShxt7cf+fTpc5nkhXX0mv6/JT1qvGThKs941yYYDWr3Vt5Xvrdn7n3PszzJ76fTCffvwl9+7OVmCOunQjn0a7E3YnjmtL+NifFp5xSg2TjppLoZ3L9ZLn/fUe97WYBN9krxlyMkpe1CzksnM+vXq6bJpKbbvcI17mBYG9esXzbTu2z2uNJezyu8uF8jNLG+i9sGYDlpVIvFQmSFq/HE1NrHVLbediM3Sxt8t0bFYK5785gU93deJLe9Ycfn4fK22E4nWNu/OtOLPKM1fMVvjTJzr+4QmvlKy62S61v58vJam9tOs31gx0L64c95/yAwtebGf2sXEqvvoFzSut1trN+0s1jJ3wMTxGuw/9+UjWGNtSz090xybjoqLsj7juHiNsUo3flFiv1qOVuKLT9jdpse8GK8B1rtuOehss3+VZm6VdY5arFmj+9nHePIikzT1rC5TRi9Nfi/B/v4GjJ6uBa90sd4vSVvKa5hb6IKS91s/uvbXMOv8Gn1/P020fh+KJc1bxmv2G6M0wNr3idOmqo+176t3/9NZWVvt07L50mulxMmN851kge8wNJWMsZculx1nzBi15gLcCA8PU2hoqPb8459+Y1gwP7485qnseRO1RiDxs7w4HGh8NIlaE2PNzOKLS/QmM40OqiIJ4DfGlhsDKxbbDifN15ZsnzhlXvNeorpbddoF/2NeE6shI/tJB9dpu1O/du/cqhXqohH97/MUOEa84qnzPv3iTE3tbG13JFYvvG/iiRWnTD3Z92890Lp0Rj9Nft3EC+t9J76iMdb5YO/uI/bnjWzfS492aGlv5hlG4j6fhKIf/V/QxEGe7cs/nunauHy5kn3OaXZM/IUnOVya8o9nkegxUwq/p8njrGOcvU177U2ylHzKOlPc30tDejvHZuZ0PV3OGAMVOv5lnmtciuvaSw/b2c2WatfD2seusT4NX1wa95N4dSptMuywWI2YnKB2KfO1YP0RrX5/vtIGzlDikOqfPbtCKhljzRBXZcnOKb7exCgzbri/OBbsDzNsmcsnxmaUM8eCGerrdgqkVa1J1L77/dfs2H4o9Sun1KPCjcMqyolzcS8u1vKfmjqb+ftcrPmjXTr2rlW38v1VqWD96/CKRC093kXTP1ykqcNNXc/6O58Zb9e3KhKH1D5Bs0x90tpm+i9MPuSEMr87w1N/tOqtk0dYRfu3am+xhrOVOM9EJWieVffrfo8VUwZ63vfY6m067LLiT99uuttsGHWfHrU+f/dYK9qUe45I15plN8foeS8WPy8BNVW1JWtLBk5ToX3hUfPH72GSCP9lVXC9iVp/44JVJpng6vG4RjQ6oKXrzJ2qE9ryxwMl7vr7yMvSsY9Xac7UCXpm5HD1+PFyZ4VHuz7D1UnbtH2/CQZZ+vzTbdKQQfp2lLV44gtttH5s/Lmn25T9+O5Mu7VUVrZv1O2pTvcXVW3i2pn+N1m6XOa1hPWa9kWv0T0P6GHrx+GzVXXyS9dXpvtA737qbj6Lw/VAF+tiH3WWVWH1tizY0XuBxjotac/7aaEUHedkwdrcrQ5nTxdvMVddQqR6VmWxpj1CQ0vOSB7ADOUBbLL9ZPEmkv5irDdRa8byKtlKbPvJMgcHCFhmmvn2rQs9eyizEzq0wfoxpFexmOtq39G6QJSS000MO6E9ZldGPK4BZbSuObbUuqj7uI3GLXrb7uXg4bz/hkSnS5d5PKlpO6yyzEzrErRIu3u9F+NlCd5Ym3l8m1b8OlHxI0dr6LcmeLqGldTjAcU5TxXTzm5NlpzpuRGS9vVx63hYldZuPhfGjTqqeyBjt/foqAd9vpu4Dubi9YiSA+7Z+E0N+alVUU5KUI/vJHhmtHfWFLL2vZ33dyS2nXWuldy+X2Ct4x1OZrwedEp82a2+nGTBe8NT9aZ3zNrKxtgKh5kCO2nrL4YF8yM0rHLVWN+JHv3xd/FuLvZ9W2R5E7WGmdjGX0vcqkgC+I2x5cbAisS2dB3alyL176dHfeKU7i/+mugBT2qwdSH+yW5zte7Wnk//ZL1muIbcY692+NZ5I+Qy79fZOh9437fk33qgdWkrJn3D+7ZhbdTO1E9KxPyAtW/nc2OwvON5Roc+tp4P6lLsnNbuoV7OM38CO55eD3coausZfe/91r8pyrRvqrXUgCf7yXVwnnUOiNeUZdt0zLzU3/VMoQoef0tA5xq/eqpdG+dpaTo+r9ljY63vd7Smbe2n6dOCcMKlSsbY8kKsv/WhYSF+41iwPwqc/fcqL36Wt74q+eslZurCJj57+SZqzQSQJW+iVbxxWAU5cW5Ib9+bPC49+JDJCaQozbeVa4XqX1as2W3Fmt7DNcCEjmIqFod865OeG4TSgM5FCc9vdOhn/8wp1pi8EueZlPl65iFvrO2m+N9bq1LKiOXlniPO6NhW60eFYjRQc1Rbsrakvm0f1syhk+2WtN4kQh+rrLRErRHZoBJ3X129NGJcrJL/uE1792/W0oM33/X3Orw0XkMnrVRmt3jNmLNYHy8oSnTY7u+nEV3lubuetVMfWxW6p4f2K3bHfsyCrdr9v8Ufb38vkCRBBeRV01id9c2pwkeeqX6jzuoxvjBZ0HvHpMIJblr56ZpruuzaWg/VGwnSmyVbg5Wjoc9s3f74drcyzDhfbe6K1nce61njHvdYx8+dW1S7MTOwl6dZZBPnWelKxkd/Mba0RG3VMRfsH0mNeunBe52iQIUVDQ3hT/Q991sXdVYl7Gs/41/9YP5NcXf33O/d+kVgsMTaI0s08qkErcjsprFTZ+vDv8y3WztVnPUfF7uwt/7XyszUXeFh9lzq/mKSdv9htsb1SLdntB84Yon21uETzPk1i7Xt0dcKb4KVpdWw8RqrXdpnhkutZIxt7jN+qz+REY3ti3DDDEtjLq4H9n3EbwwL5kfvbp7Ut++4kVEBxNhAtinp5QEv6L9+9IF94V88UTupyoaVuVkpMbaiMbAqYltUPz3zpLTl013KzPunPklya/CwQeXH3aj6Zbd0tdyWunRZyjueJc5X7qu3J5hFD7P266+LNH1IA30yN0FDh76staWP8OFfWce/ys41pXHJFWmdh4xGUoMyE813SCVjbCOf4a38adSwxO+MFaMe7tzRbxwL9kejBq5i4+2Wd34pb31VirTquyWZWG3is4nT5SVqg14g9a+Sdcwq4k3aBiyQ80zvRP25ZKz930nFe175Ue45ouQ1RYXrrUBwqrZkre8dLcNMNmYSs6Yl7c6fJdlJhOnr3yk1UWs8WOI9AtVp4HDFpSRp9pwkJQ95TsOK3fX3OqItq09I/eM1eXQ/db/f+oPPLpkUiNWAZ7pI63Zqw6ZNWqtRGjbAqeC3uc9uGbXlSIoioyKKP245Yp5Qmu+ufHFA5sb/gGK3sNPlLuzO6tahv5czflYxEYo2N/K3HtAhny6xmfu2MWYtbA+aLuS+LQ2SU31mJk9VSrKKxlf0JnlNZTfAGczDw8J0390lBm30YRKcvrKuXlPjchK8wcpUck2XY6/77mmjiCalNyntcN/dqhde1N2sNCaG+vIXY8tK1Pq2EKus5DUzNDPJpQGvx6u7fRHWRu1My80NO4vGp7W4jx6xYotLcXeZ+OndZlOZybvI707SvLFttOXVBM3Z493Qee2WI0qOLBF3Iyrz+xGcsfbwp0k6pn4a9+IoDXj4PkUrK6C/K1+RLc1/vE17v/A5yBkHtMW0GCvP8QvFJgA6vGez9W+/Eq2o3Lrsfeu8E9qz03nuZb0+svMTmvzWSu1eMFzuI/O14VZnJayx9ukvSan6Msk7LuKbWnbWM+yB/1nJU5XsO69VJWJsu3tiy2zd9I22hW2ylXXlmhWnyk48BCvTGtiMV5vjvl6YTGhoxdz7rThbGpOojWtd9vRt/uqf41b+wr7gNxf+vonasnqBVbYe61VqjC03BgYS27xa6humddTWbfq82DixX8ikoLvHtfAsW/Hs28NHybXhU31i1YlXZD+hZ75V8aR3MdValw5EecfT+l3pbP3YuU/HfGLisYNlnQcCPZ4BsP5PV2wvjXl9kXb/eYo6ZWzWmnJnGwpcVZxrynRkiaa8e8aemGly1DYlvr252HBFQaMSMfbuNnfZscYfE2NatSxqznj9Rp79cNWv55TULGa8XVMP9/I9f/jT7t6i1uLVrWRd2DBx2TBxOpBErWnsUK2cOLdhh+/4tFZ98h+7rIuEWMX5tnwNqP7l5Y01RUM2FqnCOFSqSpxnduy0Yk6JWBvl/+/IVu45wn+M9hw3oOartmStv8BnErMmmWBahJkkgkkulKWznwAcEHsihBTt3Z+iwYOKt4Qt0lLRpsvA7s1a/dkB7f14iRJn3Vz5iuv7pLrrT5r5q4/k+sHj6uONJzGDNOJJl5LfH6/4Dz7S3oNHtPezj7T058vLnnk8IOla+PpMrfh4p7Z/vErTps5XcqNR+sEQzx2k6M691E5HNOf1+Vr72U6t/eBFvbOzIidGl/o8Fa84JSlhguc9tqycqRf8fH7UEWfXa6NPr/rza9ZqY+u7Pa1KzIRiWqu/eNfvXqtlvhOOeVWwK1nXTu0VG1O8TY5JLnSzyltGNXVKpGs5bvsivGQrhZrCVObN5D2ZV4qydb26dvLb8sBUcDt1CGycJX9JgJIxtqwWtf4quOU5/Q8rJpmYs3K+Zr7QXwOn/k2RP12s+cO8d7dbathP4u0x6p7/yRI7tmxfZz2fbMX6gVM1rrcJoN5tluv5cfO02sQ5K3YunPtRid8dl7pPnq9ZA89o6YSX5ZlLpqWGPPuEXN7333PEqpBZ+7MsUUvNGKkVFpyxNjra/A7s0sY1O7V3zzYtfGOWAps+o4ir15MaZ+3q6p+P1zvrnM83McD3yVisxNdXaYuzv1PeT5Fr9GgNc+6htOs23PpkqzTnDbPNNq14Y7ZW+14M6IAWmu/nYIoyTx3Rms/MhC2lXWzUBd001um14Hm8Zk8wNjhhgd6wD+o+LfOZ1MYTf3uqW8n7WRWIseaG0KPdH7Ti5s0XQZ2/eb/uaXOXsyRduJSlyDJuIAU7776nZxSlgbo88A21jbv5hmDL5s3Us5vpCF42f/HRe8HvTc6Wl6iNaxZT4R5igcTYwGJg2bGtpO7PTdWARpuVOM7nNc7kjonDimKeZ6ixjzRv7ma5Rz+pb99irraq6tJm+ADzm77loyRtTzLJgECVdzzv05DnzFi98zTJiYlrP5igF5aWnTAN9HiWLV1r37Be/9kJpaWesN7DfK5Yq55wqwe9SCDnmrh2pvuz2WabtmzyM6RNafJOaMXM+TrWdYomDe2nMa88Ia2bpne23p5WyZVSgRgbFhqqR7p0VOMSLWybRUaox0PfdJY8LlixqWkNj7HmPOHVulULu65uJk7zZZLRPbs+cFtb1holG4h5Y7Xv87Ja1N7qTbVyxXxPE8feVxjn7BhvPU9YKQ14Nb4ot2CUU/8qyRNrtmnaCy9rqanrmTrZdE/8rJo4VJYKnmeeGm/Vqb37Y8Xag9ZnTJqnOeu88dS5eWZyMx9v08b9Vnm554jKxWigpqi2ZO3Qjt92nhVnkgkPzPluud1yTeA1wyRUjjMRgkZpxKDSKjUtNeL1tzWm/X6988J4Tfqv+pr0yxLDIBj3WBXT/m65s10a80QvuzLoEaHBc/6oxWN76fyKRI0cOVrP/5/fa8/93cqehTYgPTX9F/10bNHLip80T1uajdK8PyYWje/YfpQWvP6E4k4s0ZSXpmmNXtCMCYEleLxcD0/Rh2+NUifzHlaAX/hlF8329/lRN7SOUXLh5DaTPJMtzBrqTCoWo8EvPq2T3vVmghzvOp9xbkdP26V+s/yPx1gaU6n7Vu9u6mpdWD9sVW6HDnhUbUu0uD1z/qJaRN3eil9Va2FVXM+mZSg/3zPyl0mkmM/92CMP2UmF7g920KB+j+ihjoFHD3NDzAx3UFKgMba0GF2Wjb+eoPgXJmjK3D9pT6PhmrVinf78YhefuOjElt9O0bev/t6KLdb2szYr2vqlWf/ecMU5XSC92wzOS9K0SdY2P1+kQ5G+E5c4zAQlr83QAFkV0Z/M095s66JhyGytXxCvR1Ot9x8zWs9MmKYl+9rpYb89KMoTnLE2eliiFoz+pva8O0HPv7JSrnGzK9411dVFU5dar2t/Qgt/PkEJi46r+xsBvk+PqZr6reP268bP3arI0dYxf7Vf4fcTOXCS5o/toswNszXe+u6OdUuUZ8ZwrxaKbrROM0Y+qR5Df6h3vuio6f85WyNKudiAZVdRLC0Wf28hxt4V3VyDv9Vbvbs/qC5WbOnxUEc9MbBPsVZR5y5csicXK5lwqEnMsDGmda1J1vq2/ur2YHt957Ee9k8TZ/v17GI/TG+HQPiOAe5lLvgH/3u8er/7bJmJWmNkt6ecZ4ELJMYGFgPLiW0lxQ7XfOtvdEzrrZpjx+TF+qpzov7wn97JHR3eocZS0jVmUM+bY3aFVVFduqv1+UZ3Udp/zNT49w9UqPVmecczeths/eGVfp5455wHFvzCjDXpHUfYj0CPZ5lcahl1TAtfGq6+3xmuhDXWdciCRZr68K0fda9AzjXRQxI0dWCEtr+boJc3BJyq1bGV0zVzf6zG/fz79vjkkYMmaGpXt1a8sUDbfXqa3HG3EGNbRDXVd/v3Uq9unawY0059Hu6sAX26q0njoi/5anaOMjKv3vYEZlUyQ+Y0btRQZ636uJepq5s6u0lYm/OLOQZDrOWSjTBuB3/1WROfTZw28bqsRK3pZVapYRfL5C4x5JRpfLBYy604kmPFORPjZ2yItv6erdg3vETStJz6102cWDPu3v16x3pN/EsztMYd7WlsUyVxqCwVPM90fMH6vxM1uJHZHyvWjnxZc9a59eAD3uPfUsNenKIBkbv0zqRErbdbC5d/jig9RgM1X0h2Tm7JccOL+fJEsrp2rNjFqdfbW5ZonvWojI3/trxSLb8A1B5fnzmvsNCwGp+sNdIuXtaNGzd0b5tWN7VGqKz1Rz6xu+ZWlElCmPFtgeLStfongzRN0/XZb4YXjdeIWiktI1NpFy7r7jbR9tA0NZnpfZGcmqYCq0bbNraVIkqMe14Z5gL/X343MaCZxksyDQ7++m8fOku3V1pSgvq+Ks362/xquEHi1pY3vqXxa0bpDzusC/6a/WtTSW5t//Wziv99Py3em6gBVZc7RS1z9VqOVY9NU0x0czV0OWP31mBnzl1Qk8YNdFeL0u5S3Dnf/ffnKxyrTYMHE6fvbnZzL4xb4t6mmd0TtOKHi3T0F7VzoqvqPc8Awc3bAKt5s6q+0XOzamtZa5gBvkt2TQjEjKE/I1EL1GGXsq7qnydS7LFba0Oi1ohu3lT169XTP0+m6OLlqpngwLQm8Nf6qyyma66JzQDqJjO0jLkRlnH5iuJiWtb4RK1hut/GxURbMTZcx0+nWhXpi/YYkbfCtLYy4x1WlEkALBv9f52lWiJ1s1Yk+XbdHVVnErVpa0xX5CS7e62ni/EPNf73KWr3s+EkauHXjbw8paZn6FQtStQabe5qYZ0/cnUi+ZydiA4mJub6621WFlMXrtJE7f5V9rBTq+e+rRWK1bjvdnVWAEDlVGuy1jCDeweaTDBBdunoX2v8o6OdEgB1RXJquk5aFcBDX53SxUtX1KpFs0rN2B3MTOL5rpZRunj5ig5++bVd4TWf+1aYFrJTAky+Dun4LbsVQdV3+QIQ7EziwNwEO5F8XuHh4bq7dbTdvbW2MAnbe9q0UsvmTe1E9GHrXPLV12d1+mzlY6xpOGB6egU6IaPZrlpaat1p4bn65NUJmrJSGvGrlZpfsutuLeaKi5X74wVKMMP6vJCgd3bHasxbK/WHcR2dLQBPHdbEmmOnzuqfx1N040a+2sbF1JpErZepwzZp1FAp5y7qyPFk+8bfrdZjq4KJuSbnEEgjserLN2Rp9fQJmvY/ERrzq/maXIVDlgCom6p1GARfZuwYMyzChiOfOiVFTNAc1e1J+w4XSQSg7rl+/YaOWhfVd7VspgYul0JDS5/FvLbIy8uzZzBPv3RZ97ZupYYNbq1CX1aMNZVXE18rM04tgNrh4NFTirEutGvy+LQVYYZGuJx1VbnXr6v9vbc+u93iz1dqifVIvnTTtNt2jDUX/iOtuiyAuufYqVS77uodQ7suuHEjz25pey79oh76Zlun9M4zdeE/7PvLTbHa5BtMPfiNoT8j3wCg0m7nMAi3LVnryyQVTl86q6ZWoDQzMBIwgbrNdMs9dTbdbhVV15w5f0HRUZFVOhu7b4yt/ESNAGqTw1+dtlvThofXnYFGM69ky+3Otc4tVTsC8/aTe5xnpjUtMRao61LOXbAnazTJ2rrEJCxOnD6rzh3udUqChxl3/FDqUV22fppeErWuxwOAO6LWJ2sBwBfJ2qpN1gJASSRrAaB6kKwNvmQtAFSHWjPBGAAAAAAAAAAgMCRrAQAAAAAAACAIkKwFAAAAAAAAgCBAshYAAAAAAAAAggDJWgAAAAAAAAAIAiRrAQAAAAAAACAIkKwFAAAAAAAAgCBAshYAAAAAAAAAgkC5ydrQ0FDl5+c7SwBQ9fLyC6xYE+Is1S2hISHKyyPGAqhepi5X1+Ks+bx51GEBVDMTZ0Ks+hwAAFWl3GRtA1c9XcnOcZYAoOpdtWKMq359Z6lucbnq6+o1YiyA6nMtJ1dhYWH2Dfi6xFW/nrJz3M4SAFSP7Gtu65q5btZjAQDVo9xae0TjRkrPyHSWAKBqFRQU6MKlTCvWNHRK6hbzuS9eylLu9RtOCQBUrfSMy4poUvdibL3wcDtha2IsAFSHS1lX7Vb8JtYAAFBVyk3WNo1obHdRPnfhklMCAFXn1Nl0NW7UsM62SAgPC1OLqEglp6Y7JQBQdS5cytLVa261aBbplNQt5nMnn7tgHwMAqEo57lylpF6os/EVAFB9AuoPFxMdpctZV3X6bJrcudedUgCoPNP1/9ipVHscxVYtmjmldVNzq5Jvuih/eTJFWVevOaUAUHnXb+Qp5dwFnb9wyarHNXdK6x5zIzCmZZR1vjlr9xQrKHBWAMAtMDfCvvr6rH3DvVHDBk4pAABVIyQ7JzfgausFq5Jrkrbh4WF2azAAqIzc69ftiRhMy/1mkU2cUmReydalzCv2hGOu+uFWCZNVAKi4vPw8uXNvqGmTRmoR1bTOTuDoyzQ2MMMhXMm+poYN6is0pG6N3wugahQU5Oua+7oaNXApqlmEGtbhsWrz8wt04vRZde5wr1MSXA4tnKRVca/pjWExTsmd47svpe/XPi378WIpYYHG9nCKSmW2Xau4Wa9pcGunCEC1O5uWYce+5lb8r24VStZ6mQovs5cDqCxzw6d+PZOMhD/Xb9ywW8WJFmAAKsEkZ5nsxj/Tm8Mkss146QBQUSEhUv369RRWxyZs9Cc4krWp2jjtTS076yyqm1777Xg9aD2recnaiiBZC9wJQZ+sBQAAAAAAddOdT9Z6ErXbHvVJfO5er41thtoJTJK1AKra7UzWcksQAAAAAADUMDHq19Mn6dnDk6gtYhK6kzT6x+bxpjYWtsC1nF2v1+1yz+P1NalF5dPW67xnSdq92Fq/WIecRXt54T5nwZdJoPp5v4CZ1xffR5PY9b5fsX3wOuPzGXz3udi+lPjcAGoEkrUAAAAAAKAGiVG3R6Vl0/wkMR1fJq2VXlyglb9doNd6pmpZkjfJus963Vq1TfCsW/nb19Tv8ze1bLe1qnU39dMu7XMSnOdTpA6tU5XiLB/asU+De3fzLPjavcseb9Z+v1lPS0mLbylJen7Nm3oz+Wm9Z++f9UiQ3iyWkLU+z39b/6Wz/rW4tXrJTiKbBLVn7FvvZ6P1LVDzkKwFAAAAAAA1Sqthr3mSmKW0PO0wfHxhovJBk2BNTrWTnefXrNXGnuN9JvKK0eB/6aaNO0yyM0axcanatsu0jE3Vvs+lfo+qcDkluZt6+5sArIfP+5mE7y0lSPfpL0nS2BeHqpVToh5Pa6xPEtnsp+/6B4c/rQ67dlnHwOy/dDKloi17AQQTkrUAAAAAAKDm6TG+qOVpWV3+29ytDs5To0NciTFjzXonmWsSu19az3V2n7bF9dTgnj3tRK+9rLsV7XlFCcWHXCia9KyyYhRbLOHrSSInn3EWS2odo7bO0wcneloKm32p+HAMAIIByVoAAAAAAFBz9Riv94Z7W8CWz07G+jpzWl/GxXhaqvboqcGmlapV1ta0yDWJUGdZj3Yrau1ayDPZWfK/FA09MPaWhx4oGnrBw7TqjVFcG2expLOpOtnam0iO0eBZnv0oHN4BQI1CshYAAAAAANQg+7Ss2ERfZsiCwBK1rXr2VIddi32SmKna+N++Y9HGKK51qlb9d6qTHO2m3j09y8UmNCuUquSzPolU0wL3llrWev6/Ze/7TnS2VsvUU90Kk8C+Y/Ba+//+Wj+JZIZEAGoqkrUAAAAAAKAG6aan4tY6ww54hh7Y9uhremOYv2RqCa2H6o1ZT+vk/KLXmlaxvmPYmsnLvvRJjj7YO0Zfni05NIFXN41NiNEy7zAI759W21tsWfvgRGfSMO/n+++79d4snzFsrX0cG7ercP+XxY13PrvvcAyT9Ka85QBqkpDsnNwC5zkAAAAAAECZ8vMLdOL0WXXucK9TgluzT8t+vEu9fzteDzolAILL2bQMO/Y1bxbhlFQfWtYCAAAAAADcKbt3aWPhmLMA6jqStQAAAAAAALfb7sWeIQvmp2rsi77DHACoyxgGAQAAAAAABIxhEADUNQyDAAAAAAAAAAB1DMlaAAAAAAAAAAgCJGsBAAAAAAAAIAiQrAUAAAAAAACAIECyFgAAAAAAAACCAMlaAAAAAAAAAAgCJGsBAAAAAAAAIAiQrAUAAAAAAACAIECyFgAAAAAAAACCAMlaAAAAAAAAAAgCJGsBAAAAAAAAIAiQrAUAAAAAAACAIECyFgAAAAAAAACCAMlaAAAAAAAAAAgCJGsBAAAAAAAAIAiQrAUAAAAAAACAIECyFgAAAAAAAACCAMlaAAAAAAAAAAgCJGsBAAAAAAAAIAiQrAUAAAAAAACAIECyFgAAAAAAAACCAMlaAAAAAAAQsPz8AjVw1XeWAKD2y3Hn2o/bgWQtAAAAAAAIWEiIVFBQ4CwBQO2Xl5ev8PAwZ6l6kawFAAAAAAABCwsLtTO2p1PTnRIAqN3yCwrUNKKxs1S9SNYCAAAAAIAKaRbRWFezc5wlAKi9klPTFRYaIlf9ek5J9SJZCwAAAAAAKqRJ44Zq0KC+vjp11ikBgNrn/IXLyrp6Tc0iI5yS6heSnZPLQDMAAAAAAKDCzqVnKCcnVw0buhR7V3OpQAoNDXHWAkDNYiZQNDHsyrUcXbx0Rdev31Czpk3UpFFDZ4vqR7IWAAAAAABU2pXsa7py9Zqu37ih0JBQXbtNM6YDQFXzTKAo1QsPU/164bqrZfPbfgOKZC0AAAAAAAAABAHGrAUAAAAAAACAIECyFgAAAAAAAACCAMlaAAAAAAAAAAgCJGsBAAAAAAAAIAiQrAUAAAAAAACAIECyFgAAAAAAAACCAMlaAAAAAAAAAAgCJGsBAAAAAAAAIAiQrAUAAAAAAACAIECyFgAAAAAAAADuOOn/By1Pvlbc50D7AAAAAElFTkSuQmCC;" vertex="1" parent="1">
          <mxGeometry x="20" y="270" width="1387" height="149" as="geometry" />
        </mxCell>
        <mxCell id="PjstXgl7E4h7pvbELBnQ-2" value="Matrix: deploy" style="rounded=1;whiteSpace=wrap;html=1;" vertex="1" parent="1">
          <mxGeometry x="700" y="190" width="120" height="60" as="geometry" />
        </mxCell>
      </root>
    </mxGraphModel>
  </diagram>
</mxfile>
